# xmcd
#
# Track frame offsets:
#	150
#	5365
#	26943
#	48443
#	71102
#	92859
#	125365
#	138336
#	158451
#	186542
#	198662
#	226850
#	255852
#	279565
#	308567
#
# Disc length: 4489 seconds
#
# Revision: 1
# Processed by: cddbd v1.5.2PL0 Copyright (c) Steve Scherf et al.
# Submitted via: audiograbber 1.83.01
#
DISCID=cb11870f
DTITLE=Аркадий Северный - Херсонкий концерт [CD 1)
DYEAR=1979
DGENRE=
TTITLE0=Приветствие
TTITLE1=Жил в Одессе паренек
TTITLE2=Семь сорок
TTITLE3=Свадьба в доме Соломона
TTITLE4=Одесский телефон
TTITLE5=Купите папиросы
TTITLE6=Гром прогремел
TTITLE7=Жил я в шумном городе
TTITLE8=Дамы,господа
TTITLE9=На плинтуаре
TTITLE10=Алеша
TTITLE11=Грустное танго
TTITLE12=Сашка
TTITLE13=Грустное танго
TTITLE14=Алеша
EXTD=
EXTT0=
EXTT1=
EXTT2=
EXTT3=
EXTT4=
EXTT5=
EXTT6=
EXTT7=
EXTT8=
EXTT9=
EXTT10=
EXTT11=
EXTT12=
EXTT13=
EXTT14=
PLAYORDER=
